<?xml version="1.0" standalone="no"?><!DOCTYPE svg PUBLIC "-//W3C//DTD SVG 1.1//EN" "http://www.w3.org/Graphics/SVG/1.1/DTD/svg11.dtd"><svg t="1610535420634" class="icon" viewBox="0 0 1024 1024" version="1.1" xmlns="http://www.w3.org/2000/svg" p-id="19201" xmlns:xlink="http://www.w3.org/1999/xlink" width="200" height="200"><defs><style type="text/css"></style></defs><path d="M663.104 957.423c-133.523 0-293.494-122.898-398.078-305.825C129.516 414.544 132.45 167.204 271.71 88.51c30.09-16.993 64.71-24.742 102.34-23.092a66.282 66.282 0 0 1 8.544-0.774c0.206 0 1.554-0.02 1.748-0.02 61.308 0 117.344 76.202 130.352 177.26 8.49 65.913-4.031 125.497-33.477 159.386-15.645 18.001-35.307 27.795-57.322 28.31-0.02 0-2.44 0.644-3.253 1.632-1.131 1.377-2.456 6.274-0.694 16.087 12.713 31.056 27.793 61.878 44.832 91.692 18.544 32.427 39.328 63.488 61.815 92.33 0.251 0.281 0.497 0.539 0.754 0.797 3.852 4.317 6.427 4.317 7.662 4.317 4.311 0 9.567-2.663 12.717-4.701 14.71-19.915 39.008-30.803 69.03-30.803 40.397 0 88.515 19.437 132.046 53.33 79.863 62.204 112.66 145.83 83.465 198.672-2.598 4.708-2.859 5.219-5.438 9.808-19.337 29.33-42.173 54.82-71.446 71.355-27.403 15.49-58.449 23.327-92.295 23.327h0.014z m-46.347-306.277c-9.868 0-22.895 1.976-28.875 11.448a25.105 25.105 0 0 1-4.896 5.671c-2.195 1.889-22.197 18.385-47.97 18.385-16.258 0-31.076-6.377-43.085-18.468a25.734 25.734 0 0 1-3.651-3.783c-24.682-31.42-47.449-65.294-67.687-100.686-18.55-32.457-34.923-66.069-48.67-99.894a25.604 25.604 0 0 1-1.303-4.3c-5.187-24.848-1.64-45.016 10.557-59.9 15.987-19.524 39.762-20.255 41.967-20.255 2.56-0.068 10.37-0.238 19.573-10.824 19.632-22.596 28.111-69.827 21.61-120.3-9.83-76.352-50.329-133.402-80.479-133.402-1.195 0.044-2.372 0.239-3.524 0.473a26.511 26.511 0 0 1-6.27 0.409c-28.678-1.694-54.91 3.845-77.146 16.389-110.843 62.627-105.194 289.202 12.324 494.766 94.367 165.063 239.873 280.333 353.872 280.333 24.884 0 47.46-5.608 67.091-16.71 21.65-12.242 41.716-33.11 55.122-56.065 1.132-1.939 2.578-4.333 4.64-8.16 13.471-24.985-12.87-86.079-72.563-132.56-34.235-26.65-71.85-42.567-100.637-42.567z m80.089-169.117c-1.526 0-3.09-0.15-4.647-0.433-13.918-2.531-23.136-15.723-20.572-29.49 1.81-9.836-0.34-19.782-6.083-27.983-5.734-8.226-14.366-13.747-24.302-15.552-13.918-2.512-23.136-15.719-20.582-29.487 2.55-13.766 15.872-22.874 29.815-20.362 23.397 4.234 43.723 17.246 57.244 36.6 13.505 19.373 18.589 42.786 14.296 65.917-2.263 12.218-13.037 20.79-25.17 20.79z m86.576-1.83c-1.536 0-3.096-0.146-4.652-0.43-13.918-2.51-23.136-15.716-20.587-29.487 10.468-56.44-27.447-110.782-84.518-121.136-13.909-2.51-23.126-15.722-20.573-29.468 2.55-13.765 15.937-22.874 29.815-20.361 84.864 15.382 141.24 96.18 125.67 180.117-2.26 12.218-13.028 20.765-25.155 20.765z m99.165 27.668a26.08 26.08 0 0 1-4.647-0.408c-13.923-2.536-23.125-15.743-20.576-29.488 10.468-56.509-1.934-113.665-34.92-160.959-32.998-47.274-82.633-79.017-139.752-89.37-13.923-2.536-23.141-15.722-20.586-29.489 2.559-13.77 15.925-22.872 29.815-20.362 70.6 12.803 131.922 52.022 172.683 110.443 40.776 58.416 56.096 129.042 43.153 198.863-2.27 12.222-13.044 20.77-25.17 20.77z m0 0" p-id="19202"></path></svg>