<?xml version="1.0" standalone="no"?><!DOCTYPE svg PUBLIC "-//W3C//DTD SVG 1.1//EN" "http://www.w3.org/Graphics/SVG/1.1/DTD/svg11.dtd"><svg t="1609406013781" class="icon" viewBox="0 0 1024 1024" version="1.1" xmlns="http://www.w3.org/2000/svg" p-id="4766" xmlns:xlink="http://www.w3.org/1999/xlink" width="200" height="200"><defs><style type="text/css"></style></defs><path d="M73.2 846c-13.2-0.2-24.1 10.4-24.3 23.6-0.2 13.2 10.4 24.1 23.6 24.3h877.6c13.2 0.2 24.1-10.4 24.3-23.6 0.2-13.2-10.4-24.1-23.6-24.3H73.2z" fill="#444852" p-id="4767"></path><path d="M743 151.9h79.8c26.4 0 47.9 21.4 47.9 47.9v526.6c0 26.4-21.4 47.9-47.9 47.9H743c-26.4 0-47.9-21.4-47.9-47.9V199.8c0-26.4 21.5-47.9 47.9-47.9z" fill="#B0FA90" p-id="4768"></path><path d="M798.8 151.9v526.6c0 13.3-10.7 23.9-23.9 23.9h-79.8v23.9c0 26.5 21.3 47.9 47.9 47.9h79.8c26.5 0 47.9-21.3 47.9-47.9V199.8c0-26.5-21.3-47.9-47.9-47.9h-24z" fill="#95E55F" p-id="4769"></path><path d="M471.7 279.6h79.8c26.4 0 47.9 21.4 47.9 47.9v398.9c0 26.4-21.4 47.9-47.9 47.9h-79.8c-26.4 0-47.9-21.4-47.9-47.9v-399c0.1-26.4 21.5-47.8 47.9-47.8z" fill="#91DDFF" p-id="4770"></path><path d="M527.6 279.6v398.9c0 13.3-10.7 23.9-23.9 23.9h-79.8v23.9c0 26.5 21.3 47.9 47.9 47.9h79.8c26.5 0 47.9-21.3 47.9-47.9V327.4c0-26.5-21.3-47.9-47.9-47.9h-24z" fill="#52C7FC" p-id="4771"></path><path d="M471.7 255.6c-39.4 0-71.8 32.4-71.8 71.8v398.9c0 39.4 32.4 71.8 71.8 71.8h79.8c39.4 0 71.8-32.4 71.8-71.8V327.4c0-39.4-32.4-71.8-71.8-71.8h-79.8z m0 47.9h79.8c13.7 0 23.9 10.3 23.9 23.9v398.9c0 13.7-10.3 23.9-23.9 23.9h-79.8c-13.7 0-23.9-10.3-23.9-23.9V327.4c0-13.6 10.3-23.9 23.9-23.9z" fill="#444852" p-id="4772"></path><path d="M200.5 407.2h79.8c26.4 0 47.9 21.4 47.9 47.9v271.3c0 26.4-21.4 47.9-47.9 47.9h-79.8c-26.4 0-47.9-21.4-47.9-47.9V455.1c0-26.4 21.4-47.9 47.9-47.9z" fill="#FFEE91" p-id="4773"></path><path d="M256.3 407.2v271.3c0 13.3-10.7 23.9-23.9 23.9h-79.8v23.9c0 26.5 21.3 47.9 47.9 47.9h79.8c26.5 0 47.9-21.3 47.9-47.9V455.1c0-26.5-21.3-47.9-47.9-47.9h-24z" fill="#F9D151" p-id="4774"></path><path d="M200.5 383.3c-39.4 0-71.8 32.4-71.8 71.8v271.3c0 39.4 32.4 71.8 71.8 71.8h79.8c39.4 0 71.8-32.4 71.8-71.8V455.1c0-39.4-32.4-71.8-71.8-71.8h-79.8z m0 47.9h79.8c13.7 0 23.9 10.3 23.9 23.9v271.3c0 13.7-10.3 23.9-23.9 23.9h-79.8c-13.7 0-23.9-10.3-23.9-23.9V455.1c-0.1-13.7 10.2-23.9 23.9-23.9zM743 128c-39.4 0-71.8 32.4-71.8 71.8v526.6c0 39.4 32.4 71.8 71.8 71.8h79.8c13.2 0.2 24.1-10.4 24.3-23.6 0.2-13.2-10.4-24.1-23.6-24.3H743c-13.7 0-23.9-10.3-23.9-23.9V199.8c0-13.7 10.3-23.9 23.9-23.9h79.8c13.7 0 23.9 10.3 23.9 23.9v207.4c-0.2 13.2 10.4 24.1 23.6 24.3 13.2 0.2 24.1-10.4 24.3-23.6V199.8c0-39.4-32.4-71.8-71.8-71.8H743z" fill="#444852" p-id="4775"></path><path d="M806.1 467.5c-17.3 0.6-26.7 20.4-16.2 34.1l47.2 65.1h-29.8c-28.7-0.4-28.7 42.9 0 42.5h42.2v28.3h-42.2c-28.7-0.4-28.7 42.9 0 42.5h42.2v20.9c-0.4 28.7 42.9 28.7 42.5 0V680h42.2c28.7 0.4 28.7-42.9 0-42.5H892v-28.3h42.2c28.7 0.4 28.7-42.9 0-42.5h-29.8l47.2-65.1c10.4-13.9 0.6-33.8-16.8-34-7-0.1-13.6 3.3-17.6 9l-46.4 64-46.4-64c-4.2-5.9-11.1-9.3-18.3-9.1z" fill="#444852" p-id="4776"></path></svg>