<?xml version="1.0" standalone="no"?><!DOCTYPE svg PUBLIC "-//W3C//DTD SVG 1.1//EN" "http://www.w3.org/Graphics/SVG/1.1/DTD/svg11.dtd"><svg t="1610535424864" class="icon" viewBox="0 0 1024 1024" version="1.1" xmlns="http://www.w3.org/2000/svg" p-id="19330" xmlns:xlink="http://www.w3.org/1999/xlink" width="200" height="200"><defs><style type="text/css"></style></defs><path d="M754.585 77c45.668 0 83.37 34.091 89.018 78.2h9.936c60.396 0 109.47 48.444 110.446 108.574L964 265.6v552c0 60.363-48.47 109.41-108.634 110.385l-1.827 0.015H165.461c-60.396 0-109.47-48.444-110.446-108.574L55 817.6v-552c0-60.363 48.47-109.41 108.634-110.385l1.827-0.015 30.647-0.001c5.587-43.63 42.536-77.458 87.534-78.187l1.485-0.012h469.458z m149.582 417.011H114.832V817.6c0 27.666 22.217 50.146 49.792 50.593l0.837 0.007h688.078c27.682 0 50.174-22.204 50.621-49.763l0.007-0.837V494.011z m-708.79-279.012l-29.916 0.001c-27.682 0-50.174 22.204-50.621 49.763l-0.007 0.837-0.001 168.611h80.545V214.999zM754.585 136.8H285.127c-16.287 0-29.534 13.007-29.909 29.194l-0.008 0.706v267.511h529.291V166.7c0-16.277-13.014-29.517-29.21-29.892l-0.706-0.008z m98.954 78.2l-9.205-0.001v219.212h59.833V265.6c0-27.666-22.216-50.146-49.79-50.593l-0.838-0.007z m-391.934-42.125l50.164 50.103 49.714-49.653c6.612-6.603 17.269-6.69 23.987-0.26l0.266 0.26 0.015 0.015c6.593 6.601 6.674 17.243 0.246 23.943l-0.26 0.266-47.41 47.35L582 244.9c10.162 0 18.4 8.238 18.4 18.4 0 10.162-8.238 18.4-18.4 18.4h-49.488v23h65.597c10.162 0 18.4 8.238 18.4 18.4 0 10.162-8.238 18.4-18.4 18.4h-65.597v42.54c0 10.056-8.062 18.229-18.075 18.407l-0.334 0.003c-10.056 0-18.23-8.062-18.408-18.076l-0.003-0.334V341.5h-67.897c-10.162 0-18.4-8.238-18.4-18.4 0-10.162 8.238-18.4 18.4-18.4h67.897v-23h-47.186c-10.162 0-18.4-8.238-18.4-18.4 0-10.162 8.238-18.4 18.4-18.4h36.704l-47.858-47.801c-6.69-6.681-6.696-17.52-0.015-24.209l0.015-0.015c6.7-6.691 17.553-6.691 24.253 0z" fill="#333333" p-id="19331"></path></svg>