<?xml version="1.0" standalone="no"?><!DOCTYPE svg PUBLIC "-//W3C//DTD SVG 1.1//EN" "http://www.w3.org/Graphics/SVG/1.1/DTD/svg11.dtd"><svg t="1610535418532" class="icon" viewBox="0 0 1024 1024" version="1.1" xmlns="http://www.w3.org/2000/svg" p-id="19070" xmlns:xlink="http://www.w3.org/1999/xlink" width="200" height="200"><defs><style type="text/css"></style></defs><path d="M365.013333 894.72a89.386667 89.386667 0 0 1-89.386666-89.173333h42.666666a46.72 46.72 0 0 0 93.226667 0h42.666667a89.386667 89.386667 0 0 1-89.173334 89.173333zM658.986667 894.72a89.386667 89.386667 0 0 1-89.173334-89.173333h42.666667a46.72 46.72 0 0 0 93.226667 0h42.666666a89.386667 89.386667 0 0 1-89.386666 89.173333zM376.32 713.6a21.333333 21.333333 0 0 1-21.333333-21.333333v-45.226667a21.333333 21.333333 0 0 1 42.666666 0v45.226667a21.333333 21.333333 0 0 1-21.333333 21.333333zM670.293333 713.6a21.333333 21.333333 0 0 1-21.333333-21.333333v-45.226667a21.333333 21.333333 0 0 1 42.666667 0v45.226667a21.333333 21.333333 0 0 1-21.333334 21.333333z" p-id="19071"></path><path d="M760.96 804.266667H263.04a66.56 66.56 0 0 1-66.56-66.56V285.013333a66.56 66.56 0 0 1 66.56-66.56h105.386667a21.333333 21.333333 0 0 1 0 42.666667h-105.386667a23.893333 23.893333 0 0 0-23.893333 23.893333v452.693334a23.893333 23.893333 0 0 0 23.893333 23.893333h497.92a23.893333 23.893333 0 0 0 23.893333-23.893333V285.013333a23.893333 23.893333 0 0 0-23.893333-23.893333h-109.653333a21.333333 21.333333 0 0 1 0-42.666667h109.653333a66.56 66.56 0 0 1 66.56 66.56v452.693334a66.56 66.56 0 0 1-66.56 66.56z" p-id="19072"></path><path d="M806.186667 577.92H217.813333a21.333333 21.333333 0 1 1 0-42.666667h588.373334a21.333333 21.333333 0 0 1 0 42.666667zM594.346667 306.346667h-164.693334a74.666667 74.666667 0 0 1-74.666666-74.666667v-6.4a74.666667 74.666667 0 0 1 74.666666-74.666667h164.693334a74.666667 74.666667 0 0 1 74.666666 74.666667v6.4a74.666667 74.666667 0 0 1-74.666666 74.666667z m-164.693334-113.066667a32 32 0 0 0-32 32v6.4a32 32 0 0 0 32 32h164.693334a32 32 0 0 0 32-32v-6.4a32 32 0 0 0-32-32z" p-id="19073"></path></svg>