<?xml version="1.0" standalone="no"?><!DOCTYPE svg PUBLIC "-//W3C//DTD SVG 1.1//EN" "http://www.w3.org/Graphics/SVG/1.1/DTD/svg11.dtd"><svg t="1610536966507" class="icon" viewBox="0 0 1024 1024" version="1.1" xmlns="http://www.w3.org/2000/svg" p-id="30581" xmlns:xlink="http://www.w3.org/1999/xlink" width="200" height="200"><defs><style type="text/css"></style></defs><path d="M411.306667 533.572267H301.124267a27.374933 27.374933 0 1 1 0-54.818134h76.663466L315.392 370.619733a27.8528 27.8528 0 0 1 48.059733-27.784533L438.954667 473.4976l75.502933-130.6624a27.8528 27.8528 0 0 1 48.128 27.716267l-62.532267 108.202666h76.253867a27.4432 27.4432 0 0 1 0 54.8864H466.1248v54.818134h110.1824a27.4432 27.4432 0 0 1 0 54.818133H466.1248v82.397867a27.648 27.648 0 0 1-46.830933 19.456 27.101867 27.101867 0 0 1-7.9872-19.456V643.2768H301.124267a27.374933 27.374933 0 1 1 0-54.818133h110.1824v-54.8864z m460.5952 24.849066a314.845867 314.845867 0 0 0-62.0544-17.2032 634.0608 634.0608 0 0 0-12.629334-51.063466 418.065067 418.065067 0 0 0-109.226666-182.340267 454.929067 454.929067 0 0 0-88.064-67.9936 297.7792 297.7792 0 0 0-38.434134-19.797333l-243.712-0.682667a297.642667 297.642667 0 0 0-40.277333 20.48c-32.017067 18.978133-61.576533 41.7792-88.064 67.9936a418.065067 418.065067 0 0 0-109.226667 182.408533c-31.470933 108.066133-26.8288 192.512-0.955733 255.317334 7.441067 17.954133 14.472533 29.218133 18.295467 33.792l3.549866 5.3248c9.079467 17.544533 38.912 34.542933 61.166934 34.542933h276.48v58.231467h-276.48c-42.1888 0-90.862933-27.170133-111.274667-63.0784a204.8 204.8 0 0 1-25.531733-46.626134c-30.993067-75.093333-36.317867-173.124267-1.092267-293.819733 22.801067-78.711467 65.536-150.186667 124.177067-207.530667a512.8192 512.8192 0 0 1 116.736-86.562133l-45.2608-85.1968C194.423467 46.830933 222.0032 0 276.002133 0h162.679467v58.231467H276.002133c-9.762133 0-9.6256-0.273067-4.7104 9.0112l51.882667 97.28h231.082667l51.882666-97.28c4.9152-9.284267 5.12-9.0112-4.7104-9.0112H438.6816V0H601.429333c53.998933 0 81.578667 46.830933 56.046934 94.6176l-45.397334 85.1968c42.871467 23.210667 82.193067 52.292267 116.804267 86.493867a476.023467 476.023467 0 0 1 124.245333 207.598933c8.6016 29.4912 14.7456 57.685333 18.773334 84.514133z m-429.329067 319.010134h-3.822933V819.2h6.826666a109.568 109.568 0 0 0-3.072 58.231467h0.068267z m577.3312 35.089066a10.0352 10.0352 0 0 1 0 16.1792l-92.296533 67.037867a10.0352 10.0352 0 0 1-15.906134-8.123733v-43.6224H609.8944a23.415467 23.415467 0 0 1 0-46.762667h301.806933v-43.690667a10.0352 10.0352 0 0 1 15.906134-8.123733l92.296533 67.106133z m-429.2608-144.247466a10.0352 10.0352 0 0 1 0-16.247467l92.296533-67.037867a10.0352 10.0352 0 0 1 15.837867 8.192v43.554134h301.806933a23.415467 23.415467 0 0 1 0 46.762666h-301.738666v43.690667a10.0352 10.0352 0 0 1-15.906134 8.123733l-92.296533-67.037866z" p-id="30582"></path></svg>