<?xml version="1.0" standalone="no"?><!DOCTYPE svg PUBLIC "-//W3C//DTD SVG 1.1//EN" "http://www.w3.org/Graphics/SVG/1.1/DTD/svg11.dtd"><svg t="1610535426914" class="icon" viewBox="0 0 1024 1024" version="1.1" xmlns="http://www.w3.org/2000/svg" p-id="19459" xmlns:xlink="http://www.w3.org/1999/xlink" width="200" height="200"><defs><style type="text/css"></style></defs><path d="M470.264 147.739L349.228 324.344l-205.363 60.538a50 50 0 0 0-16.353 8.332l-0.651 0.51c-21.314 16.956-25.157 47.94-8.486 69.608l130.559 169.684-5.886 214.021a50 50 0 0 0 2.871 18.127l0.284 0.777c9.54 25.51 37.82 38.74 63.579 29.58l201.726-71.734 201.726 71.735a50 50 0 0 0 18.127 2.87l0.826-0.029c27.21-1.19 48.532-23.998 47.78-51.326l-5.886-214.02 130.56-169.685a50 50 0 0 0 8.332-16.353l0.227-0.795c7.277-26.246-7.827-53.572-34.05-61.302l-205.363-60.538L552.75 147.74a50 50 0 0 0-12.977-12.978c-22.778-15.61-53.899-9.8-69.51 12.978z m41.244 60.105l109.806 160.222 0.351 0.506a50 50 0 0 0 26.755 19.187l186.31 54.921-118.446 153.944-0.379 0.499a50 50 0 0 0-9.974 31.366l5.34 194.162-183.01-65.077-0.604-0.21a50 50 0 0 0-32.902 0.21L311.744 822.65l5.341-194.162 0.013-0.627a50 50 0 0 0-10.367-31.238L188.284 442.68l186.311-54.92a50 50 0 0 0 27.106-19.694l109.807-160.222z" p-id="19460"></path></svg>