<?xml version="1.0" standalone="no"?><!DOCTYPE svg PUBLIC "-//W3C//DTD SVG 1.1//EN" "http://www.w3.org/Graphics/SVG/1.1/DTD/svg11.dtd"><svg t="1609405987626" class="icon" viewBox="0 0 1024 1024" version="1.1" xmlns="http://www.w3.org/2000/svg" p-id="3894" xmlns:xlink="http://www.w3.org/1999/xlink" width="200" height="200"><defs><style type="text/css"></style></defs><path d="M436.334975 993.73399c-20.17734 0-35.310345-5.044335-45.399014-20.17734l-302.660099-317.793103c-25.221675-25.221675-25.221675-65.576355 0-90.79803l408.591133-408.591133c10.08867-10.08867 30.26601-20.17734 45.399015-20.17734h358.147783c15.133005 0 25.221675 10.08867 25.221675 25.221675V504.433498c0 15.133005-5.044335 35.310345-20.17734 45.399014L476.689655 978.600985c-5.044335 10.08867-20.17734 15.133005-40.35468 15.133005z m110.97537-807.093596c-5.044335 0-5.044335 0-10.08867 5.044335L123.586207 600.275862c-5.044335 5.044335-5.044335 15.133005 0 20.17734l302.660098 317.793103c5.044335 5.044335 10.08867 5.044335 10.08867 5.044335s5.044335 0 10.08867-5.044335l428.768473-428.768472 5.044335-5.044335V186.640394h-332.926108z" fill="#F9B427" p-id="3895"></path><path d="M723.862069 398.502463c-35.310345 0-70.62069-30.26601-70.62069-70.62069s30.26601-70.62069 70.62069-70.620689 70.62069 30.26601 70.62069 70.620689-30.26601 70.62069-70.62069 70.62069z m0-100.886699c-20.17734 0-30.26601 15.133005-30.26601 30.266009s15.133005 30.26601 30.26601 30.26601 30.26601-15.133005 30.26601-30.26601-10.08867-30.26601-30.26601-30.266009z" fill="#F9B427" p-id="3896"></path></svg>